<?xml version="1.0" encoding="utf-8"?>
<!-- Generator: Adobe Illustrator 16.0.0, SVG Export Plug-In . SVG Version: 6.00 Build 0)  -->
<!DOCTYPE svg PUBLIC "-//W3C//DTD SVG 1.1//EN" "http://www.w3.org/Graphics/SVG/1.1/DTD/svg11.dtd">
<svg version="1.1" id="Layer_1" xmlns="http://www.w3.org/2000/svg" xmlns:xlink="http://www.w3.org/1999/xlink" x="0px" y="0px"
	 width="40px" height="40px" viewBox="0 0 40 40" enable-background="new 0 0 40 40" xml:space="preserve">
<g>
	<path fill="#FFFFFF" d="M21.662,17.965v-0.059c-0.013,0.02-0.029,0.04-0.039,0.059H21.662z"/>
	<path fill="#FFFFFF" d="M0,0v40h40V0H0z M12.441,33.23H6.507V15.376h5.935V33.23z M9.474,12.939H9.435
		c-1.991,0-3.281-1.372-3.281-3.086c0-1.752,1.328-3.084,3.359-3.084s3.28,1.333,3.319,3.084
		C12.832,11.568,11.544,12.939,9.474,12.939z M33.846,33.23H27.91v-9.552c0-2.399-0.857-4.037-3.006-4.037
		c-1.641,0-2.616,1.103-3.046,2.171c-0.156,0.382-0.196,0.912-0.196,1.447v9.971h-5.938c0,0,0.08-16.179,0-17.854h5.938v2.53
		c0.788-1.213,2.195-2.949,5.35-2.949c3.906,0,6.834,2.551,6.834,8.035V33.23z"/>
</g>
</svg>
